<svg id="color" enable-background="new 0 0 24 24" height="512" viewBox="0 0 24 24" width="512" xmlns="http://www.w3.org/2000/svg"><path d="m21.25 5h-10.689l-1.781-1.78c-.14-.141-.331-.22-.53-.22h-5.5c-1.517 0-2.75 1.233-2.75 2.75v12.5c0 1.517 1.233 2.75 2.75 2.75h18.5c1.517 0 2.75-1.233 2.75-2.75v-10.5c0-1.517-1.233-2.75-2.75-2.75z" fill="#ffc107"/><path d="m8.25 3h-5.5c-1.517 0-2.75 1.233-2.75 2.75v12.5c0 1.517 1.233 2.75 2.75 2.75h9.25v-16h-1.439l-1.781-1.78c-.14-.141-.331-.22-.53-.22z" fill="#dea806"/><g fill="#fff"><path d="m13.75 11.5h-3.5c-.414 0-.75-.336-.75-.75s.336-.75.75-.75h3.5c.414 0 .75.336.75.75s-.336.75-.75.75z"/><path d="m5.25 16c-.414 0-.75-.336-.75-.75v-3.5c0-.965.785-1.75 1.75-1.75h1.5c.414 0 .75.336.75.75s-.336.75-.75.75h-1.5c-.138 0-.25.112-.25.25v3.5c0 .414-.336.75-.75.75z"/><path d="m16.25 16c-.414 0-.75-.336-.75-.75v-4.5c0-.414.336-.75.75-.75h1.25c1.103 0 2 .897 2 2s-.897 2-2 2h-.5v1.25c0 .414-.336.75-.75.75zm.75-3.5h.5c.275 0 .5-.225.5-.5s-.225-.5-.5-.5h-.5z"/><path d="m7.75 14h-2.5c-.414 0-.75-.336-.75-.75s.336-.75.75-.75h2.5c.414 0 .75.336.75.75s-.336.75-.75.75z"/><path d="m12 16c-.414 0-.75-.336-.75-.75v-4.5c0-.414.336-.75.75-.75s.75.336.75.75v4.5c0 .414-.336.75-.75.75z"/></g><path d="m4.5 13.25v2c0 .414.336.75.75.75s.75-.336.75-.75v-1.25h-.75c-.414 0-.75-.336-.75-.75z" fill="#dedede"/><path d="m19.06 13.25h-3.56v2c0 .414.336.75.75.75s.75-.336.75-.75v-1.25h.5c.63 0 1.193-.293 1.56-.75z" fill="#dedede"/><path d="m8.5 13.25h-4c0 .414.336.75.75.75h.75 1.75c.414 0 .75-.336.75-.75z" fill="#dedede"/><path d="m12.75 13.25h-1.5v2c0 .414.336.75.75.75s.75-.336.75-.75z" fill="#dedede"/></svg>